<svg width="18" height="18" viewBox="0 0 18 18" fill="none" xmlns="http://www.w3.org/2000/svg">
<path d="M7.49146 17.062C7.34146 17.062 7.22146 17.032 7.13146 16.9945C6.83146 16.882 6.32146 16.5145 6.32146 15.352V10.5145H4.56646C3.56146 10.5145 3.20146 10.042 3.07396 9.76449C2.94646 9.47949 2.83396 8.90199 3.49396 8.14449L9.17146 1.69449C9.93646 0.824486 10.559 0.884486 10.859 0.996986C11.159 1.10949 11.669 1.47699 11.669 2.63949V7.47699H13.424C14.429 7.47699 14.789 7.94949 14.9165 8.22699C15.044 8.51199 15.1565 9.08949 14.4965 9.84699L8.81896 16.297C8.28646 16.9045 7.82146 17.062 7.49146 17.062ZM10.4465 2.05449C10.424 2.08449 10.2665 2.15949 10.019 2.44449L4.34146 8.89449C4.13146 9.13449 4.10146 9.28449 4.10146 9.31449C4.11646 9.32199 4.25146 9.39699 4.56646 9.39699H6.88396C7.19146 9.39699 7.44646 9.65199 7.44646 9.95949V15.3595C7.44646 15.7345 7.51396 15.8995 7.54396 15.9445C7.56646 15.9145 7.72396 15.8395 7.97146 15.5545L13.649 9.10449C13.859 8.86449 13.889 8.71449 13.889 8.68449C13.874 8.67699 13.739 8.60199 13.424 8.60199H11.1065C10.799 8.60199 10.544 8.34699 10.544 8.03949V2.63949C10.5515 2.26449 10.4765 2.10699 10.4465 2.05449Z" fill="#FA541C"/>
</svg>
