<svg width="1439" height="106" viewBox="0 0 1439 106" fill="none" xmlns="http://www.w3.org/2000/svg">
<g opacity="0.5">
<circle cx="1430.5" cy="100.5" r="5.5" transform="rotate(180 1430.5 100.5)" fill="#EDEDED"/>
<circle cx="1411.5" cy="100.5" r="5.5" transform="rotate(180 1411.5 100.5)" fill="#EDEDED"/>
<circle cx="1392.5" cy="100.5" r="5.5" transform="rotate(180 1392.5 100.5)" fill="#EDEDED"/>
<circle cx="1373.5" cy="100.5" r="5.5" transform="rotate(180 1373.5 100.5)" fill="#EDEDED"/>
<circle cx="1354.5" cy="100.5" r="5.5" transform="rotate(180 1354.5 100.5)" fill="#EDEDED"/>
<circle cx="1335.5" cy="100.5" r="5.5" transform="rotate(180 1335.5 100.5)" fill="#EDEDED"/>
<circle cx="1316.5" cy="100.5" r="5.5" transform="rotate(180 1316.5 100.5)" fill="#EDEDED"/>
<circle cx="1297.5" cy="100.5" r="5.5" transform="rotate(180 1297.5 100.5)" fill="#EDEDED"/>
<circle cx="1278.5" cy="100.5" r="5.5" transform="rotate(180 1278.5 100.5)" fill="#EDEDED"/>
<circle cx="1259.5" cy="100.5" r="5.5" transform="rotate(180 1259.5 100.5)" fill="#EDEDED"/>
<circle cx="1240.5" cy="100.5" r="5.5" transform="rotate(180 1240.5 100.5)" fill="#EDEDED"/>
<circle cx="1221.5" cy="100.5" r="5.5" transform="rotate(180 1221.5 100.5)" fill="#EDEDED"/>
<circle cx="1202.5" cy="100.5" r="5.5" transform="rotate(180 1202.5 100.5)" fill="#EDEDED"/>
<circle cx="1183.5" cy="100.5" r="5.5" transform="rotate(180 1183.5 100.5)" fill="#EDEDED"/>
<circle cx="1164.5" cy="100.5" r="5.5" transform="rotate(180 1164.5 100.5)" fill="#EDEDED"/>
<circle cx="1145.5" cy="100.5" r="5.5" transform="rotate(180 1145.5 100.5)" fill="#EDEDED"/>
<circle cx="1126.5" cy="100.5" r="5.5" transform="rotate(180 1126.5 100.5)" fill="#EDEDED"/>
<circle cx="1107.5" cy="100.5" r="5.5" transform="rotate(180 1107.5 100.5)" fill="#EDEDED"/>
<circle cx="1088.5" cy="100.5" r="5.5" transform="rotate(180 1088.5 100.5)" fill="#EDEDED"/>
<circle cx="1069.5" cy="100.5" r="5.5" transform="rotate(180 1069.5 100.5)" fill="#EDEDED"/>
<circle cx="1050.5" cy="100.5" r="5.5" transform="rotate(180 1050.5 100.5)" fill="#EDEDED"/>
<circle cx="1031.5" cy="100.5" r="5.5" transform="rotate(180 1031.5 100.5)" fill="#EDEDED"/>
<circle cx="1012.5" cy="100.5" r="5.5" transform="rotate(180 1012.5 100.5)" fill="#EDEDED"/>
<circle cx="993.5" cy="100.5" r="5.5" transform="rotate(180 993.5 100.5)" fill="#EDEDED"/>
<circle cx="974.5" cy="100.5" r="5.5" transform="rotate(180 974.5 100.5)" fill="#EDEDED"/>
<circle cx="955.5" cy="100.5" r="5.5" transform="rotate(180 955.5 100.5)" fill="#EDEDED"/>
<circle cx="936.5" cy="100.5" r="5.5" transform="rotate(180 936.5 100.5)" fill="#EDEDED"/>
<circle cx="917.5" cy="100.5" r="5.5" transform="rotate(180 917.5 100.5)" fill="#EDEDED"/>
<circle cx="898.5" cy="100.5" r="5.5" transform="rotate(180 898.5 100.5)" fill="#EDEDED"/>
<circle cx="879.5" cy="100.5" r="5.5" transform="rotate(180 879.5 100.5)" fill="#EDEDED"/>
<circle cx="860.5" cy="100.5" r="5.5" transform="rotate(180 860.5 100.5)" fill="#EDEDED"/>
<circle cx="841.5" cy="100.5" r="5.5" transform="rotate(180 841.5 100.5)" fill="#EDEDED"/>
<circle cx="822.5" cy="100.5" r="5.5" transform="rotate(180 822.5 100.5)" fill="#EDEDED"/>
<circle cx="803.5" cy="100.5" r="5.5" transform="rotate(180 803.5 100.5)" fill="#EDEDED"/>
<circle cx="784.5" cy="100.5" r="5.5" transform="rotate(180 784.5 100.5)" fill="#EDEDED"/>
<circle cx="765.5" cy="100.5" r="5.5" transform="rotate(180 765.5 100.5)" fill="#EDEDED"/>
<circle cx="746.5" cy="100.5" r="5.5" transform="rotate(180 746.5 100.5)" fill="#EDEDED"/>
<circle cx="727.5" cy="100.5" r="5.5" transform="rotate(180 727.5 100.5)" fill="#EDEDED"/>
<circle cx="708.5" cy="100.5" r="5.5" transform="rotate(180 708.5 100.5)" fill="#EDEDED"/>
<circle cx="689.5" cy="100.5" r="5.5" transform="rotate(180 689.5 100.5)" fill="#EDEDED"/>
<circle cx="670.5" cy="100.5" r="5.5" transform="rotate(180 670.5 100.5)" fill="#EDEDED"/>
<circle cx="651.5" cy="100.5" r="5.5" transform="rotate(180 651.5 100.5)" fill="#EDEDED"/>
<circle cx="632.5" cy="100.5" r="5.5" transform="rotate(180 632.5 100.5)" fill="#EDEDED"/>
<circle cx="613.5" cy="100.5" r="5.5" transform="rotate(180 613.5 100.5)" fill="#EDEDED"/>
<circle cx="594.5" cy="100.5" r="5.5" transform="rotate(180 594.5 100.5)" fill="#EDEDED"/>
<circle cx="575.5" cy="100.5" r="5.5" transform="rotate(180 575.5 100.5)" fill="#EDEDED"/>
<circle cx="556.5" cy="100.5" r="5.5" transform="rotate(180 556.5 100.5)" fill="#EDEDED"/>
<circle cx="537.5" cy="100.5" r="5.5" transform="rotate(180 537.5 100.5)" fill="#EDEDED"/>
<circle cx="518.5" cy="100.5" r="5.5" transform="rotate(180 518.5 100.5)" fill="#EDEDED"/>
<circle cx="499.5" cy="100.5" r="5.5" transform="rotate(180 499.5 100.5)" fill="#EDEDED"/>
<circle cx="480.5" cy="100.5" r="5.5" transform="rotate(180 480.5 100.5)" fill="#EDEDED"/>
<circle cx="461.5" cy="100.5" r="5.5" transform="rotate(180 461.5 100.5)" fill="#EDEDED"/>
<circle cx="442.5" cy="100.5" r="5.5" transform="rotate(180 442.5 100.5)" fill="#EDEDED"/>
<circle cx="423.5" cy="100.5" r="5.5" transform="rotate(180 423.5 100.5)" fill="#EDEDED"/>
<circle cx="404.5" cy="100.5" r="5.5" transform="rotate(180 404.5 100.5)" fill="#EDEDED"/>
<circle cx="385.5" cy="100.5" r="5.5" transform="rotate(180 385.5 100.5)" fill="#EDEDED"/>
<circle cx="366.5" cy="100.5" r="5.5" transform="rotate(180 366.5 100.5)" fill="#EDEDED"/>
<circle cx="347.5" cy="100.5" r="5.5" transform="rotate(180 347.5 100.5)" fill="#EDEDED"/>
<circle cx="328.5" cy="100.5" r="5.5" transform="rotate(180 328.5 100.5)" fill="#EDEDED"/>
<circle cx="309.5" cy="100.5" r="5.5" transform="rotate(180 309.5 100.5)" fill="#EDEDED"/>
<circle cx="290.5" cy="100.5" r="5.5" transform="rotate(180 290.5 100.5)" fill="#EDEDED"/>
<circle cx="271.5" cy="100.5" r="5.5" transform="rotate(180 271.5 100.5)" fill="#EDEDED"/>
<circle cx="252.5" cy="100.5" r="5.5" transform="rotate(180 252.5 100.5)" fill="#EDEDED"/>
<circle cx="233.5" cy="100.5" r="5.5" transform="rotate(180 233.5 100.5)" fill="#EDEDED"/>
<circle cx="214.5" cy="100.5" r="5.5" transform="rotate(180 214.5 100.5)" fill="#EDEDED"/>
<circle cx="195.5" cy="100.5" r="5.5" transform="rotate(180 195.5 100.5)" fill="#EDEDED"/>
<circle cx="176.5" cy="100.5" r="5.5" transform="rotate(180 176.5 100.5)" fill="#EDEDED"/>
<circle cx="157.5" cy="100.5" r="5.5" transform="rotate(180 157.5 100.5)" fill="#EDEDED"/>
<circle cx="138.5" cy="100.5" r="5.5" transform="rotate(180 138.5 100.5)" fill="#EDEDED"/>
<circle cx="119.5" cy="100.5" r="5.5" transform="rotate(180 119.5 100.5)" fill="#EDEDED"/>
<circle cx="100.5" cy="100.5" r="5.5" transform="rotate(180 100.5 100.5)" fill="#EDEDED"/>
<circle cx="81.5" cy="100.5" r="5.5" transform="rotate(180 81.5 100.5)" fill="#EDEDED"/>
<circle cx="62.5" cy="100.5" r="5.5" transform="rotate(180 62.5 100.5)" fill="#EDEDED"/>
<circle cx="43.5" cy="100.5" r="5.5" transform="rotate(180 43.5 100.5)" fill="#EDEDED"/>
<circle cx="24.5" cy="100.5" r="5.5" transform="rotate(180 24.5 100.5)" fill="#EDEDED"/>
<circle cx="5.5" cy="100.5" r="5.5" transform="rotate(180 5.5 100.5)" fill="#EDEDED"/>
<circle cx="1430.5" cy="81.5" r="5.5" transform="rotate(180 1430.5 81.5)" fill="#EDEDED"/>
<circle cx="1411.5" cy="81.5" r="5.5" transform="rotate(180 1411.5 81.5)" fill="#EDEDED"/>
<circle cx="1392.5" cy="81.5" r="5.5" transform="rotate(180 1392.5 81.5)" fill="#EDEDED"/>
<circle cx="1373.5" cy="81.5" r="5.5" transform="rotate(180 1373.5 81.5)" fill="#EDEDED"/>
<circle cx="1354.5" cy="81.5" r="5.5" transform="rotate(180 1354.5 81.5)" fill="#EDEDED"/>
<circle cx="1335.5" cy="81.5" r="5.5" transform="rotate(180 1335.5 81.5)" fill="#EDEDED"/>
<circle cx="1316.5" cy="81.5" r="5.5" transform="rotate(180 1316.5 81.5)" fill="#EDEDED"/>
<circle cx="1297.5" cy="81.5" r="5.5" transform="rotate(180 1297.5 81.5)" fill="#EDEDED"/>
<circle cx="1278.5" cy="81.5" r="5.5" transform="rotate(180 1278.5 81.5)" fill="#EDEDED"/>
<circle cx="1259.5" cy="81.5" r="5.5" transform="rotate(180 1259.5 81.5)" fill="#EDEDED"/>
<circle cx="1240.5" cy="81.5" r="5.5" transform="rotate(180 1240.5 81.5)" fill="#EDEDED"/>
<circle cx="1221.5" cy="81.5" r="5.5" transform="rotate(180 1221.5 81.5)" fill="#EDEDED"/>
<circle cx="1202.5" cy="81.5" r="5.5" transform="rotate(180 1202.5 81.5)" fill="#EDEDED"/>
<circle cx="1183.5" cy="81.5" r="5.5" transform="rotate(180 1183.5 81.5)" fill="#EDEDED"/>
<circle cx="1164.5" cy="81.5" r="5.5" transform="rotate(180 1164.5 81.5)" fill="#EDEDED"/>
<circle cx="1145.5" cy="81.5" r="5.5" transform="rotate(180 1145.5 81.5)" fill="#EDEDED"/>
<circle cx="1126.5" cy="81.5" r="5.5" transform="rotate(180 1126.5 81.5)" fill="#EDEDED"/>
<circle cx="1107.5" cy="81.5" r="5.5" transform="rotate(180 1107.5 81.5)" fill="#EDEDED"/>
<circle cx="1088.5" cy="81.5" r="5.5" transform="rotate(180 1088.5 81.5)" fill="#EDEDED"/>
<circle cx="1069.5" cy="81.5" r="5.5" transform="rotate(180 1069.5 81.5)" fill="#EDEDED"/>
<circle cx="1050.5" cy="81.5" r="5.5" transform="rotate(180 1050.5 81.5)" fill="#EDEDED"/>
<circle cx="1031.5" cy="81.5" r="5.5" transform="rotate(180 1031.5 81.5)" fill="#EDEDED"/>
<circle cx="1012.5" cy="81.5" r="5.5" transform="rotate(180 1012.5 81.5)" fill="#EDEDED"/>
<circle cx="993.5" cy="81.5" r="5.5" transform="rotate(180 993.5 81.5)" fill="#EDEDED"/>
<circle cx="974.5" cy="81.5" r="5.5" transform="rotate(180 974.5 81.5)" fill="#EDEDED"/>
<circle cx="955.5" cy="81.5" r="5.5" transform="rotate(180 955.5 81.5)" fill="#EDEDED"/>
<circle cx="936.5" cy="81.5" r="5.5" transform="rotate(180 936.5 81.5)" fill="#EDEDED"/>
<circle cx="917.5" cy="81.5" r="5.5" transform="rotate(180 917.5 81.5)" fill="#EDEDED"/>
<circle cx="898.5" cy="81.5" r="5.5" transform="rotate(180 898.5 81.5)" fill="#EDEDED"/>
<circle cx="879.5" cy="81.5" r="5.5" transform="rotate(180 879.5 81.5)" fill="#EDEDED"/>
<circle cx="860.5" cy="81.5" r="5.5" transform="rotate(180 860.5 81.5)" fill="#EDEDED"/>
<circle cx="841.5" cy="81.5" r="5.5" transform="rotate(180 841.5 81.5)" fill="#EDEDED"/>
<circle cx="822.5" cy="81.5" r="5.5" transform="rotate(180 822.5 81.5)" fill="#EDEDED"/>
<circle cx="803.5" cy="81.5" r="5.5" transform="rotate(180 803.5 81.5)" fill="#EDEDED"/>
<circle cx="784.5" cy="81.5" r="5.5" transform="rotate(180 784.5 81.5)" fill="#EDEDED"/>
<circle cx="765.5" cy="81.5" r="5.5" transform="rotate(180 765.5 81.5)" fill="#EDEDED"/>
<circle cx="746.5" cy="81.5" r="5.5" transform="rotate(180 746.5 81.5)" fill="#EDEDED"/>
<circle cx="727.5" cy="81.5" r="5.5" transform="rotate(180 727.5 81.5)" fill="#EDEDED"/>
<circle cx="708.5" cy="81.5" r="5.5" transform="rotate(180 708.5 81.5)" fill="#EDEDED"/>
<circle cx="689.5" cy="81.5" r="5.5" transform="rotate(180 689.5 81.5)" fill="#EDEDED"/>
<circle cx="670.5" cy="81.5" r="5.5" transform="rotate(180 670.5 81.5)" fill="#EDEDED"/>
<circle cx="651.5" cy="81.5" r="5.5" transform="rotate(180 651.5 81.5)" fill="#EDEDED"/>
<circle cx="632.5" cy="81.5" r="5.5" transform="rotate(180 632.5 81.5)" fill="#EDEDED"/>
<circle cx="613.5" cy="81.5" r="5.5" transform="rotate(180 613.5 81.5)" fill="#EDEDED"/>
<circle cx="594.5" cy="81.5" r="5.5" transform="rotate(180 594.5 81.5)" fill="#EDEDED"/>
<circle cx="575.5" cy="81.5" r="5.5" transform="rotate(180 575.5 81.5)" fill="#EDEDED"/>
<circle cx="556.5" cy="81.5" r="5.5" transform="rotate(180 556.5 81.5)" fill="#EDEDED"/>
<circle cx="537.5" cy="81.5" r="5.5" transform="rotate(180 537.5 81.5)" fill="#EDEDED"/>
<circle cx="518.5" cy="81.5" r="5.5" transform="rotate(180 518.5 81.5)" fill="#EDEDED"/>
<circle cx="499.5" cy="81.5" r="5.5" transform="rotate(180 499.5 81.5)" fill="#EDEDED"/>
<circle cx="480.5" cy="81.5" r="5.5" transform="rotate(180 480.5 81.5)" fill="#EDEDED"/>
<circle cx="461.5" cy="81.5" r="5.5" transform="rotate(180 461.5 81.5)" fill="#EDEDED"/>
<circle cx="442.5" cy="81.5" r="5.5" transform="rotate(180 442.5 81.5)" fill="#EDEDED"/>
<circle cx="423.5" cy="81.5" r="5.5" transform="rotate(180 423.5 81.5)" fill="#EDEDED"/>
<circle cx="404.5" cy="81.5" r="5.5" transform="rotate(180 404.5 81.5)" fill="#EDEDED"/>
<circle cx="385.5" cy="81.5" r="5.5" transform="rotate(180 385.5 81.5)" fill="#EDEDED"/>
<circle cx="366.5" cy="81.5" r="5.5" transform="rotate(180 366.5 81.5)" fill="#EDEDED"/>
<circle cx="347.5" cy="81.5" r="5.5" transform="rotate(180 347.5 81.5)" fill="#EDEDED"/>
<circle opacity="0.5" cx="328.5" cy="81.5" r="5.5" transform="rotate(180 328.5 81.5)" fill="#EDEDED"/>
<circle cx="309.5" cy="81.5" r="5.5" transform="rotate(180 309.5 81.5)" fill="#EDEDED"/>
<circle cx="290.5" cy="81.5" r="5.5" transform="rotate(180 290.5 81.5)" fill="#EDEDED"/>
<circle cx="271.5" cy="81.5" r="5.5" transform="rotate(180 271.5 81.5)" fill="#EDEDED"/>
<circle cx="252.5" cy="81.5" r="5.5" transform="rotate(180 252.5 81.5)" fill="#EDEDED"/>
<circle cx="233.5" cy="81.5" r="5.5" transform="rotate(180 233.5 81.5)" fill="#EDEDED"/>
<circle cx="214.5" cy="81.5" r="5.5" transform="rotate(180 214.5 81.5)" fill="#EDEDED"/>
<circle cx="195.5" cy="81.5" r="5.5" transform="rotate(180 195.5 81.5)" fill="#EDEDED"/>
<circle cx="176.5" cy="81.5" r="5.5" transform="rotate(180 176.5 81.5)" fill="#EDEDED"/>
<circle cx="157.5" cy="81.5" r="5.5" transform="rotate(180 157.5 81.5)" fill="#EDEDED"/>
<circle cx="138.5" cy="81.5" r="5.5" transform="rotate(180 138.5 81.5)" fill="#EDEDED"/>
<circle cx="119.5" cy="81.5" r="5.5" transform="rotate(180 119.5 81.5)" fill="#EDEDED"/>
<circle cx="100.5" cy="81.5" r="5.5" transform="rotate(180 100.5 81.5)" fill="#EDEDED"/>
<circle cx="81.5" cy="81.5" r="5.5" transform="rotate(180 81.5 81.5)" fill="#EDEDED"/>
<circle cx="62.5" cy="81.5" r="5.5" transform="rotate(180 62.5 81.5)" fill="#EDEDED"/>
<circle cx="43.5" cy="81.5" r="5.5" transform="rotate(180 43.5 81.5)" fill="#EDEDED"/>
<circle cx="24.5" cy="81.5" r="5.5" transform="rotate(180 24.5 81.5)" fill="#EDEDED"/>
<circle cx="5.5" cy="81.5" r="5.5" transform="rotate(180 5.5 81.5)" fill="#EDEDED"/>
<circle cx="1430.5" cy="62.5" r="5.5" transform="rotate(180 1430.5 62.5)" fill="#EDEDED"/>
<circle cx="1411.5" cy="62.5" r="5.5" transform="rotate(180 1411.5 62.5)" fill="#EDEDED"/>
<circle cx="1392.5" cy="62.5" r="5.5" transform="rotate(180 1392.5 62.5)" fill="#EDEDED"/>
<circle cx="1373.5" cy="62.5" r="5.5" transform="rotate(180 1373.5 62.5)" fill="#EDEDED"/>
<circle cx="1354.5" cy="62.5" r="5.5" transform="rotate(180 1354.5 62.5)" fill="#EDEDED"/>
<circle cx="1335.5" cy="62.5" r="5.5" transform="rotate(180 1335.5 62.5)" fill="#EDEDED"/>
<circle cx="1316.5" cy="62.5" r="5.5" transform="rotate(180 1316.5 62.5)" fill="#EDEDED"/>
<circle cx="1297.5" cy="62.5" r="5.5" transform="rotate(180 1297.5 62.5)" fill="#EDEDED"/>
<circle cx="1278.5" cy="62.5" r="5.5" transform="rotate(180 1278.5 62.5)" fill="#EDEDED"/>
<circle cx="1259.5" cy="62.5" r="5.5" transform="rotate(180 1259.5 62.5)" fill="#EDEDED"/>
<circle cx="1240.5" cy="62.5" r="5.5" transform="rotate(180 1240.5 62.5)" fill="#EDEDED"/>
<circle cx="1221.5" cy="62.5" r="5.5" transform="rotate(180 1221.5 62.5)" fill="#EDEDED"/>
<circle cx="1202.5" cy="62.5" r="5.5" transform="rotate(180 1202.5 62.5)" fill="#EDEDED"/>
<circle cx="1183.5" cy="62.5" r="5.5" transform="rotate(180 1183.5 62.5)" fill="#EDEDED"/>
<circle cx="1164.5" cy="62.5" r="5.5" transform="rotate(180 1164.5 62.5)" fill="#EDEDED"/>
<circle cx="1145.5" cy="62.5" r="5.5" transform="rotate(180 1145.5 62.5)" fill="#EDEDED"/>
<circle cx="1126.5" cy="62.5" r="5.5" transform="rotate(180 1126.5 62.5)" fill="#EDEDED"/>
<circle cx="1107.5" cy="62.5" r="5.5" transform="rotate(180 1107.5 62.5)" fill="#EDEDED"/>
<circle cx="1088.5" cy="62.5" r="5.5" transform="rotate(180 1088.5 62.5)" fill="#EDEDED"/>
<circle cx="1069.5" cy="62.5" r="5.5" transform="rotate(180 1069.5 62.5)" fill="#EDEDED"/>
<circle cx="1050.5" cy="62.5" r="5.5" transform="rotate(180 1050.5 62.5)" fill="#EDEDED"/>
<circle cx="1031.5" cy="62.5" r="5.5" transform="rotate(180 1031.5 62.5)" fill="#EDEDED"/>
<circle cx="1012.5" cy="62.5" r="5.5" transform="rotate(180 1012.5 62.5)" fill="#EDEDED"/>
<circle cx="993.5" cy="62.5" r="5.5" transform="rotate(180 993.5 62.5)" fill="#EDEDED"/>
<circle cx="974.5" cy="62.5" r="5.5" transform="rotate(180 974.5 62.5)" fill="#EDEDED"/>
<circle cx="955.5" cy="62.5" r="5.5" transform="rotate(180 955.5 62.5)" fill="#EDEDED"/>
<circle cx="936.5" cy="62.5" r="5.5" transform="rotate(180 936.5 62.5)" fill="#EDEDED"/>
<circle cx="917.5" cy="62.5" r="5.5" transform="rotate(180 917.5 62.5)" fill="#EDEDED"/>
<circle cx="898.5" cy="62.5" r="5.5" transform="rotate(180 898.5 62.5)" fill="#EDEDED"/>
<circle cx="879.5" cy="62.5" r="5.5" transform="rotate(180 879.5 62.5)" fill="#EDEDED"/>
<circle cx="860.5" cy="62.5" r="5.5" transform="rotate(180 860.5 62.5)" fill="#EDEDED"/>
<circle cx="841.5" cy="62.5" r="5.5" transform="rotate(180 841.5 62.5)" fill="#EDEDED"/>
<circle cx="822.5" cy="62.5" r="5.5" transform="rotate(180 822.5 62.5)" fill="#EDEDED"/>
<circle cx="803.5" cy="62.5" r="5.5" transform="rotate(180 803.5 62.5)" fill="#EDEDED"/>
<circle cx="784.5" cy="62.5" r="5.5" transform="rotate(180 784.5 62.5)" fill="#EDEDED"/>
<circle cx="765.5" cy="62.5" r="5.5" transform="rotate(180 765.5 62.5)" fill="#EDEDED"/>
<circle cx="746.5" cy="62.5" r="5.5" transform="rotate(180 746.5 62.5)" fill="#EDEDED"/>
<circle cx="727.5" cy="62.5" r="5.5" transform="rotate(180 727.5 62.5)" fill="#EDEDED"/>
<circle cx="708.5" cy="62.5" r="5.5" transform="rotate(180 708.5 62.5)" fill="#EDEDED"/>
<circle cx="689.5" cy="62.5" r="5.5" transform="rotate(180 689.5 62.5)" fill="#EDEDED"/>
<circle cx="670.5" cy="62.5" r="5.5" transform="rotate(180 670.5 62.5)" fill="#EDEDED"/>
<circle cx="651.5" cy="62.5" r="5.5" transform="rotate(180 651.5 62.5)" fill="#EDEDED"/>
<circle cx="632.5" cy="62.5" r="5.5" transform="rotate(180 632.5 62.5)" fill="#EDEDED"/>
<circle cx="613.5" cy="62.5" r="5.5" transform="rotate(180 613.5 62.5)" fill="#EDEDED"/>
<circle cx="594.5" cy="62.5" r="5.5" transform="rotate(180 594.5 62.5)" fill="#EDEDED"/>
<circle cx="575.5" cy="62.5" r="5.5" transform="rotate(180 575.5 62.5)" fill="#EDEDED"/>
<circle cx="556.5" cy="62.5" r="5.5" transform="rotate(180 556.5 62.5)" fill="#EDEDED"/>
<circle cx="537.5" cy="62.5" r="5.5" transform="rotate(180 537.5 62.5)" fill="#EDEDED"/>
<circle cx="518.5" cy="62.5" r="5.5" transform="rotate(180 518.5 62.5)" fill="#EDEDED"/>
<circle cx="499.5" cy="62.5" r="5.5" transform="rotate(180 499.5 62.5)" fill="#EDEDED"/>
<circle cx="480.5" cy="62.5" r="5.5" transform="rotate(180 480.5 62.5)" fill="#EDEDED"/>
<circle cx="461.5" cy="62.5" r="5.5" transform="rotate(180 461.5 62.5)" fill="#EDEDED"/>
<circle cx="442.5" cy="62.5" r="5.5" transform="rotate(180 442.5 62.5)" fill="#EDEDED"/>
<circle cx="423.5" cy="62.5" r="5.5" transform="rotate(180 423.5 62.5)" fill="#EDEDED"/>
<circle cx="404.5" cy="62.5" r="5.5" transform="rotate(180 404.5 62.5)" fill="#EDEDED"/>
<circle cx="385.5" cy="62.5" r="5.5" transform="rotate(180 385.5 62.5)" fill="#EDEDED"/>
<circle cx="366.5" cy="62.5" r="5.5" transform="rotate(180 366.5 62.5)" fill="#EDEDED"/>
<circle cx="347.5" cy="62.5" r="5.5" transform="rotate(180 347.5 62.5)" fill="#EDEDED"/>
<circle cx="328.5" cy="62.5" r="5.5" transform="rotate(180 328.5 62.5)" fill="#EDEDED"/>
<circle cx="309.5" cy="62.5" r="5.5" transform="rotate(180 309.5 62.5)" fill="#EDEDED"/>
<circle cx="290.5" cy="62.5" r="5.5" transform="rotate(180 290.5 62.5)" fill="#EDEDED"/>
<circle cx="271.5" cy="62.5" r="5.5" transform="rotate(180 271.5 62.5)" fill="#EDEDED"/>
<circle cx="252.5" cy="62.5" r="5.5" transform="rotate(180 252.5 62.5)" fill="#EDEDED"/>
<circle cx="233.5" cy="62.5" r="5.5" transform="rotate(180 233.5 62.5)" fill="#EDEDED"/>
<circle cx="214.5" cy="62.5" r="5.5" transform="rotate(180 214.5 62.5)" fill="#EDEDED"/>
<circle cx="195.5" cy="62.5" r="5.5" transform="rotate(180 195.5 62.5)" fill="#EDEDED"/>
<circle cx="176.5" cy="62.5" r="5.5" transform="rotate(180 176.5 62.5)" fill="#EDEDED"/>
<circle cx="157.5" cy="62.5" r="5.5" transform="rotate(180 157.5 62.5)" fill="#EDEDED"/>
<circle cx="138.5" cy="62.5" r="5.5" transform="rotate(180 138.5 62.5)" fill="#EDEDED"/>
<circle cx="119.5" cy="62.5" r="5.5" transform="rotate(180 119.5 62.5)" fill="#EDEDED"/>
<circle cx="100.5" cy="62.5" r="5.5" transform="rotate(180 100.5 62.5)" fill="#EDEDED"/>
<circle cx="81.5" cy="62.5" r="5.5" transform="rotate(180 81.5 62.5)" fill="#EDEDED"/>
<circle cx="62.5" cy="62.5" r="5.5" transform="rotate(180 62.5 62.5)" fill="#EDEDED"/>
<circle cx="43.5" cy="62.5" r="5.5" transform="rotate(180 43.5 62.5)" fill="#EDEDED"/>
<circle cx="24.5" cy="62.5" r="5.5" transform="rotate(180 24.5 62.5)" fill="#EDEDED"/>
<circle cx="5.5" cy="62.5" r="5.5" transform="rotate(180 5.5 62.5)" fill="#EDEDED"/>
<circle cx="1430.5" cy="43.5" r="5.5" transform="rotate(180 1430.5 43.5)" fill="#EDEDED"/>
<circle cx="1411.5" cy="43.5" r="5.5" transform="rotate(180 1411.5 43.5)" fill="#EDEDED"/>
<circle cx="1392.5" cy="43.5" r="5.5" transform="rotate(180 1392.5 43.5)" fill="#EDEDED"/>
<circle cx="1373.5" cy="43.5" r="5.5" transform="rotate(180 1373.5 43.5)" fill="#EDEDED"/>
<circle cx="1354.5" cy="43.5" r="5.5" transform="rotate(180 1354.5 43.5)" fill="#EDEDED"/>
<circle cx="1335.5" cy="43.5" r="5.5" transform="rotate(180 1335.5 43.5)" fill="#EDEDED"/>
<circle cx="1316.5" cy="43.5" r="5.5" transform="rotate(180 1316.5 43.5)" fill="#EDEDED"/>
<circle cx="1297.5" cy="43.5" r="5.5" transform="rotate(180 1297.5 43.5)" fill="#EDEDED"/>
<circle cx="1278.5" cy="43.5" r="5.5" transform="rotate(180 1278.5 43.5)" fill="#EDEDED"/>
<circle cx="1259.5" cy="43.5" r="5.5" transform="rotate(180 1259.5 43.5)" fill="#EDEDED"/>
<circle cx="1240.5" cy="43.5" r="5.5" transform="rotate(180 1240.5 43.5)" fill="#EDEDED"/>
<circle cx="1221.5" cy="43.5" r="5.5" transform="rotate(180 1221.5 43.5)" fill="#EDEDED"/>
<circle cx="1202.5" cy="43.5" r="5.5" transform="rotate(180 1202.5 43.5)" fill="#EDEDED"/>
<circle cx="1183.5" cy="43.5" r="5.5" transform="rotate(180 1183.5 43.5)" fill="#EDEDED"/>
<circle cx="1164.5" cy="43.5" r="5.5" transform="rotate(180 1164.5 43.5)" fill="#EDEDED"/>
<circle cx="1145.5" cy="43.5" r="5.5" transform="rotate(180 1145.5 43.5)" fill="#EDEDED"/>
<circle cx="1126.5" cy="43.5" r="5.5" transform="rotate(180 1126.5 43.5)" fill="#EDEDED"/>
<circle cx="1107.5" cy="43.5" r="5.5" transform="rotate(180 1107.5 43.5)" fill="#EDEDED"/>
<circle cx="1088.5" cy="43.5" r="5.5" transform="rotate(180 1088.5 43.5)" fill="#EDEDED"/>
<circle cx="1069.5" cy="43.5" r="5.5" transform="rotate(180 1069.5 43.5)" fill="#EDEDED"/>
<circle cx="1050.5" cy="43.5" r="5.5" transform="rotate(180 1050.5 43.5)" fill="#EDEDED"/>
<circle cx="1031.5" cy="43.5" r="5.5" transform="rotate(180 1031.5 43.5)" fill="#EDEDED"/>
<circle cx="1012.5" cy="43.5" r="5.5" transform="rotate(180 1012.5 43.5)" fill="#EDEDED"/>
<circle cx="993.5" cy="43.5" r="5.5" transform="rotate(180 993.5 43.5)" fill="#EDEDED"/>
<circle cx="974.5" cy="43.5" r="5.5" transform="rotate(180 974.5 43.5)" fill="#EDEDED"/>
<circle cx="955.5" cy="43.5" r="5.5" transform="rotate(180 955.5 43.5)" fill="#EDEDED"/>
<circle cx="936.5" cy="43.5" r="5.5" transform="rotate(180 936.5 43.5)" fill="#EDEDED"/>
<circle cx="917.5" cy="43.5" r="5.5" transform="rotate(180 917.5 43.5)" fill="#EDEDED"/>
<circle cx="898.5" cy="43.5" r="5.5" transform="rotate(180 898.5 43.5)" fill="#EDEDED"/>
<circle cx="879.5" cy="43.5" r="5.5" transform="rotate(180 879.5 43.5)" fill="#EDEDED"/>
<circle cx="860.5" cy="43.5" r="5.5" transform="rotate(180 860.5 43.5)" fill="#EDEDED"/>
<circle cx="841.5" cy="43.5" r="5.5" transform="rotate(180 841.5 43.5)" fill="#EDEDED"/>
<circle cx="822.5" cy="43.5" r="5.5" transform="rotate(180 822.5 43.5)" fill="#EDEDED"/>
<circle cx="803.5" cy="43.5" r="5.5" transform="rotate(180 803.5 43.5)" fill="#EDEDED"/>
<circle cx="784.5" cy="43.5" r="5.5" transform="rotate(180 784.5 43.5)" fill="#EDEDED"/>
<circle cx="765.5" cy="43.5" r="5.5" transform="rotate(180 765.5 43.5)" fill="#EDEDED"/>
<circle cx="746.5" cy="43.5" r="5.5" transform="rotate(180 746.5 43.5)" fill="#EDEDED"/>
<circle cx="727.5" cy="43.5" r="5.5" transform="rotate(180 727.5 43.5)" fill="#EDEDED"/>
<circle cx="708.5" cy="43.5" r="5.5" transform="rotate(180 708.5 43.5)" fill="#EDEDED"/>
<circle cx="689.5" cy="43.5" r="5.5" transform="rotate(180 689.5 43.5)" fill="#EDEDED"/>
<circle cx="670.5" cy="43.5" r="5.5" transform="rotate(180 670.5 43.5)" fill="#EDEDED"/>
<circle cx="651.5" cy="43.5" r="5.5" transform="rotate(180 651.5 43.5)" fill="#EDEDED"/>
<circle cx="632.5" cy="43.5" r="5.5" transform="rotate(180 632.5 43.5)" fill="#EDEDED"/>
<circle cx="613.5" cy="43.5" r="5.5" transform="rotate(180 613.5 43.5)" fill="#EDEDED"/>
<circle cx="594.5" cy="43.5" r="5.5" transform="rotate(180 594.5 43.5)" fill="#EDEDED"/>
<circle cx="575.5" cy="43.5" r="5.5" transform="rotate(180 575.5 43.5)" fill="#EDEDED"/>
<circle cx="556.5" cy="43.5" r="5.5" transform="rotate(180 556.5 43.5)" fill="#EDEDED"/>
<circle cx="537.5" cy="43.5" r="5.5" transform="rotate(180 537.5 43.5)" fill="#EDEDED"/>
<circle cx="518.5" cy="43.5" r="5.5" transform="rotate(180 518.5 43.5)" fill="#EDEDED"/>
<circle cx="499.5" cy="43.5" r="5.5" transform="rotate(180 499.5 43.5)" fill="#EDEDED"/>
<circle cx="480.5" cy="43.5" r="5.5" transform="rotate(180 480.5 43.5)" fill="#EDEDED"/>
<circle cx="461.5" cy="43.5" r="5.5" transform="rotate(180 461.5 43.5)" fill="#EDEDED"/>
<circle cx="442.5" cy="43.5" r="5.5" transform="rotate(180 442.5 43.5)" fill="#EDEDED"/>
<circle cx="423.5" cy="43.5" r="5.5" transform="rotate(180 423.5 43.5)" fill="#EDEDED"/>
<circle cx="404.5" cy="43.5" r="5.5" transform="rotate(180 404.5 43.5)" fill="#EDEDED"/>
<circle cx="385.5" cy="43.5" r="5.5" transform="rotate(180 385.5 43.5)" fill="#EDEDED"/>
<circle cx="366.5" cy="43.5" r="5.5" transform="rotate(180 366.5 43.5)" fill="#EDEDED"/>
<circle cx="347.5" cy="43.5" r="5.5" transform="rotate(180 347.5 43.5)" fill="#EDEDED"/>
<circle cx="328.5" cy="43.5" r="5.5" transform="rotate(180 328.5 43.5)" fill="#EDEDED"/>
<circle cx="309.5" cy="43.5" r="5.5" transform="rotate(180 309.5 43.5)" fill="#EDEDED"/>
<circle cx="290.5" cy="43.5" r="5.5" transform="rotate(180 290.5 43.5)" fill="#EDEDED"/>
<circle cx="271.5" cy="43.5" r="5.5" transform="rotate(180 271.5 43.5)" fill="#EDEDED"/>
<circle cx="252.5" cy="43.5" r="5.5" transform="rotate(180 252.5 43.5)" fill="#EDEDED"/>
<circle cx="233.5" cy="43.5" r="5.5" transform="rotate(180 233.5 43.5)" fill="#EDEDED"/>
<circle cx="214.5" cy="43.5" r="5.5" transform="rotate(180 214.5 43.5)" fill="#EDEDED"/>
<circle cx="195.5" cy="43.5" r="5.5" transform="rotate(180 195.5 43.5)" fill="#EDEDED"/>
<circle cx="176.5" cy="43.5" r="5.5" transform="rotate(180 176.5 43.5)" fill="#EDEDED"/>
<circle cx="157.5" cy="43.5" r="5.5" transform="rotate(180 157.5 43.5)" fill="#EDEDED"/>
<circle cx="138.5" cy="43.5" r="5.5" transform="rotate(180 138.5 43.5)" fill="#EDEDED"/>
<circle cx="119.5" cy="43.5" r="5.5" transform="rotate(180 119.5 43.5)" fill="#EDEDED"/>
<circle cx="100.5" cy="43.5" r="5.5" transform="rotate(180 100.5 43.5)" fill="#EDEDED"/>
<circle cx="81.5" cy="43.5" r="5.5" transform="rotate(180 81.5 43.5)" fill="#EDEDED"/>
<circle cx="62.5" cy="43.5" r="5.5" transform="rotate(180 62.5 43.5)" fill="#EDEDED"/>
<circle cx="43.5" cy="43.5" r="5.5" transform="rotate(180 43.5 43.5)" fill="#EDEDED"/>
<circle cx="24.5" cy="43.5" r="5.5" transform="rotate(180 24.5 43.5)" fill="#EDEDED"/>
<circle cx="5.5" cy="43.5" r="5.5" transform="rotate(180 5.5 43.5)" fill="#EDEDED"/>
<circle cx="1430.5" cy="24.5" r="5.5" transform="rotate(180 1430.5 24.5)" fill="#EDEDED"/>
<circle cx="1411.5" cy="24.5" r="5.5" transform="rotate(180 1411.5 24.5)" fill="#EDEDED"/>
<circle cx="1392.5" cy="24.5" r="5.5" transform="rotate(180 1392.5 24.5)" fill="#EDEDED"/>
<circle cx="1373.5" cy="24.5" r="5.5" transform="rotate(180 1373.5 24.5)" fill="#EDEDED"/>
<circle cx="1354.5" cy="24.5" r="5.5" transform="rotate(180 1354.5 24.5)" fill="#EDEDED"/>
<circle cx="1335.5" cy="24.5" r="5.5" transform="rotate(180 1335.5 24.5)" fill="#EDEDED"/>
<circle cx="1316.5" cy="24.5" r="5.5" transform="rotate(180 1316.5 24.5)" fill="#EDEDED"/>
<circle cx="1297.5" cy="24.5" r="5.5" transform="rotate(180 1297.5 24.5)" fill="#EDEDED"/>
<circle cx="1278.5" cy="24.5" r="5.5" transform="rotate(180 1278.5 24.5)" fill="#EDEDED"/>
<circle cx="1259.5" cy="24.5" r="5.5" transform="rotate(180 1259.5 24.5)" fill="#EDEDED"/>
<circle cx="1240.5" cy="24.5" r="5.5" transform="rotate(180 1240.5 24.5)" fill="#EDEDED"/>
<circle cx="1221.5" cy="24.5" r="5.5" transform="rotate(180 1221.5 24.5)" fill="#EDEDED"/>
<circle cx="1202.5" cy="24.5" r="5.5" transform="rotate(180 1202.5 24.5)" fill="#EDEDED"/>
<circle cx="1183.5" cy="24.5" r="5.5" transform="rotate(180 1183.5 24.5)" fill="#EDEDED"/>
<circle cx="1164.5" cy="24.5" r="5.5" transform="rotate(180 1164.5 24.5)" fill="#EDEDED"/>
<circle cx="1145.5" cy="24.5" r="5.5" transform="rotate(180 1145.5 24.5)" fill="#EDEDED"/>
<circle cx="1126.5" cy="24.5" r="5.5" transform="rotate(180 1126.5 24.5)" fill="#EDEDED"/>
<circle cx="1107.5" cy="24.5" r="5.5" transform="rotate(180 1107.5 24.5)" fill="#EDEDED"/>
<circle cx="1088.5" cy="24.5" r="5.5" transform="rotate(180 1088.5 24.5)" fill="#EDEDED"/>
<circle cx="1069.5" cy="24.5" r="5.5" transform="rotate(180 1069.5 24.5)" fill="#EDEDED"/>
<circle cx="1050.5" cy="24.5" r="5.5" transform="rotate(180 1050.5 24.5)" fill="#EDEDED"/>
<circle cx="1031.5" cy="24.5" r="5.5" transform="rotate(180 1031.5 24.5)" fill="#EDEDED"/>
<circle cx="1012.5" cy="24.5" r="5.5" transform="rotate(180 1012.5 24.5)" fill="#EDEDED"/>
<circle cx="993.5" cy="24.5" r="5.5" transform="rotate(180 993.5 24.5)" fill="#EDEDED"/>
<circle cx="974.5" cy="24.5" r="5.5" transform="rotate(180 974.5 24.5)" fill="#EDEDED"/>
<circle cx="955.5" cy="24.5" r="5.5" transform="rotate(180 955.5 24.5)" fill="#EDEDED"/>
<circle cx="936.5" cy="24.5" r="5.5" transform="rotate(180 936.5 24.5)" fill="#EDEDED"/>
<circle cx="917.5" cy="24.5" r="5.5" transform="rotate(180 917.5 24.5)" fill="#EDEDED"/>
<circle cx="898.5" cy="24.5" r="5.5" transform="rotate(180 898.5 24.5)" fill="#EDEDED"/>
<circle cx="879.5" cy="24.5" r="5.5" transform="rotate(180 879.5 24.5)" fill="#EDEDED"/>
<circle cx="860.5" cy="24.5" r="5.5" transform="rotate(180 860.5 24.5)" fill="#EDEDED"/>
<circle cx="841.5" cy="24.5" r="5.5" transform="rotate(180 841.5 24.5)" fill="#EDEDED"/>
<circle cx="822.5" cy="24.5" r="5.5" transform="rotate(180 822.5 24.5)" fill="#EDEDED"/>
<circle cx="803.5" cy="24.5" r="5.5" transform="rotate(180 803.5 24.5)" fill="#EDEDED"/>
<circle cx="784.5" cy="24.5" r="5.5" transform="rotate(180 784.5 24.5)" fill="#EDEDED"/>
<circle cx="765.5" cy="24.5" r="5.5" transform="rotate(180 765.5 24.5)" fill="#EDEDED"/>
<circle cx="746.5" cy="24.5" r="5.5" transform="rotate(180 746.5 24.5)" fill="#EDEDED"/>
<circle cx="727.5" cy="24.5" r="5.5" transform="rotate(180 727.5 24.5)" fill="#EDEDED"/>
<circle cx="708.5" cy="24.5" r="5.5" transform="rotate(180 708.5 24.5)" fill="#EDEDED"/>
<circle cx="689.5" cy="24.5" r="5.5" transform="rotate(180 689.5 24.5)" fill="#EDEDED"/>
<circle cx="670.5" cy="24.5" r="5.5" transform="rotate(180 670.5 24.5)" fill="#EDEDED"/>
<circle cx="651.5" cy="24.5" r="5.5" transform="rotate(180 651.5 24.5)" fill="#EDEDED"/>
<circle cx="632.5" cy="24.5" r="5.5" transform="rotate(180 632.5 24.5)" fill="#EDEDED"/>
<circle cx="613.5" cy="24.5" r="5.5" transform="rotate(180 613.5 24.5)" fill="#EDEDED"/>
<circle cx="594.5" cy="24.5" r="5.5" transform="rotate(180 594.5 24.5)" fill="#EDEDED"/>
<circle cx="575.5" cy="24.5" r="5.5" transform="rotate(180 575.5 24.5)" fill="#EDEDED"/>
<circle cx="556.5" cy="24.5" r="5.5" transform="rotate(180 556.5 24.5)" fill="#EDEDED"/>
<circle cx="537.5" cy="24.5" r="5.5" transform="rotate(180 537.5 24.5)" fill="#EDEDED"/>
<circle cx="518.5" cy="24.5" r="5.5" transform="rotate(180 518.5 24.5)" fill="#EDEDED"/>
<circle cx="499.5" cy="24.5" r="5.5" transform="rotate(180 499.5 24.5)" fill="#EDEDED"/>
<circle cx="480.5" cy="24.5" r="5.5" transform="rotate(180 480.5 24.5)" fill="#EDEDED"/>
<circle cx="461.5" cy="24.5" r="5.5" transform="rotate(180 461.5 24.5)" fill="#EDEDED"/>
<circle cx="442.5" cy="24.5" r="5.5" transform="rotate(180 442.5 24.5)" fill="#EDEDED"/>
<circle cx="423.5" cy="24.5" r="5.5" transform="rotate(180 423.5 24.5)" fill="#EDEDED"/>
<circle cx="404.5" cy="24.5" r="5.5" transform="rotate(180 404.5 24.5)" fill="#EDEDED"/>
<circle cx="385.5" cy="24.5" r="5.5" transform="rotate(180 385.5 24.5)" fill="#EDEDED"/>
<circle cx="366.5" cy="24.5" r="5.5" transform="rotate(180 366.5 24.5)" fill="#EDEDED"/>
<circle cx="347.5" cy="24.5" r="5.5" transform="rotate(180 347.5 24.5)" fill="#EDEDED"/>
<circle cx="328.5" cy="24.5" r="5.5" transform="rotate(180 328.5 24.5)" fill="#EDEDED"/>
<circle cx="309.5" cy="24.5" r="5.5" transform="rotate(180 309.5 24.5)" fill="#EDEDED"/>
<circle cx="290.5" cy="24.5" r="5.5" transform="rotate(180 290.5 24.5)" fill="#EDEDED"/>
<circle cx="271.5" cy="24.5" r="5.5" transform="rotate(180 271.5 24.5)" fill="#EDEDED"/>
<circle cx="252.5" cy="24.5" r="5.5" transform="rotate(180 252.5 24.5)" fill="#EDEDED"/>
<circle cx="233.5" cy="24.5" r="5.5" transform="rotate(180 233.5 24.5)" fill="#EDEDED"/>
<circle cx="214.5" cy="24.5" r="5.5" transform="rotate(180 214.5 24.5)" fill="#EDEDED"/>
<circle cx="195.5" cy="24.5" r="5.5" transform="rotate(180 195.5 24.5)" fill="#EDEDED"/>
<circle cx="176.5" cy="24.5" r="5.5" transform="rotate(180 176.5 24.5)" fill="#EDEDED"/>
<circle cx="157.5" cy="24.5" r="5.5" transform="rotate(180 157.5 24.5)" fill="#EDEDED"/>
<circle cx="138.5" cy="24.5" r="5.5" transform="rotate(180 138.5 24.5)" fill="#EDEDED"/>
<circle cx="119.5" cy="24.5" r="5.5" transform="rotate(180 119.5 24.5)" fill="#EDEDED"/>
<circle cx="100.5" cy="24.5" r="5.5" transform="rotate(180 100.5 24.5)" fill="#EDEDED"/>
<circle cx="81.5" cy="24.5" r="5.5" transform="rotate(180 81.5 24.5)" fill="#EDEDED"/>
<circle cx="62.5" cy="24.5" r="5.5" transform="rotate(180 62.5 24.5)" fill="#EDEDED"/>
<circle cx="43.5" cy="24.5" r="5.5" transform="rotate(180 43.5 24.5)" fill="#EDEDED"/>
<circle cx="24.5" cy="24.5" r="5.5" transform="rotate(180 24.5 24.5)" fill="#EDEDED"/>
<circle cx="5.5" cy="24.5" r="5.5" transform="rotate(180 5.5 24.5)" fill="#EDEDED"/>
<circle cx="1145.5" cy="5.5" r="5.5" transform="rotate(180 1145.5 5.5)" fill="#EDEDED"/>
<circle cx="1126.5" cy="5.5" r="5.5" transform="rotate(180 1126.5 5.5)" fill="#EDEDED"/>
<circle cx="1107.5" cy="5.5" r="5.5" transform="rotate(180 1107.5 5.5)" fill="#EDEDED"/>
<circle cx="1088.5" cy="5.5" r="5.5" transform="rotate(180 1088.5 5.5)" fill="#EDEDED"/>
<circle cx="1069.5" cy="5.5" r="5.5" transform="rotate(180 1069.5 5.5)" fill="#EDEDED"/>
<circle cx="1050.5" cy="5.5" r="5.5" transform="rotate(180 1050.5 5.5)" fill="#EDEDED"/>
<circle cx="1031.5" cy="5.5" r="5.5" transform="rotate(180 1031.5 5.5)" fill="#EDEDED"/>
<circle cx="1012.5" cy="5.5" r="5.5" transform="rotate(180 1012.5 5.5)" fill="#EDEDED"/>
<circle cx="993.5" cy="5.5" r="5.5" transform="rotate(180 993.5 5.5)" fill="#EDEDED"/>
<circle cx="974.5" cy="5.5" r="5.5" transform="rotate(180 974.5 5.5)" fill="#EDEDED"/>
<circle cx="955.5" cy="5.5" r="5.5" transform="rotate(180 955.5 5.5)" fill="#EDEDED"/>
<circle cx="936.5" cy="5.5" r="5.5" transform="rotate(180 936.5 5.5)" fill="#EDEDED"/>
<circle cx="917.5" cy="5.5" r="5.5" transform="rotate(180 917.5 5.5)" fill="#EDEDED"/>
<circle cx="898.5" cy="5.5" r="5.5" transform="rotate(180 898.5 5.5)" fill="#EDEDED"/>
<circle cx="879.5" cy="5.5" r="5.5" transform="rotate(180 879.5 5.5)" fill="#EDEDED"/>
<circle cx="860.5" cy="5.5" r="5.5" transform="rotate(180 860.5 5.5)" fill="#EDEDED"/>
<circle cx="841.5" cy="5.5" r="5.5" transform="rotate(180 841.5 5.5)" fill="#EDEDED"/>
<circle cx="822.5" cy="5.5" r="5.5" transform="rotate(180 822.5 5.5)" fill="#EDEDED"/>
<circle cx="803.5" cy="5.5" r="5.5" transform="rotate(180 803.5 5.5)" fill="#EDEDED"/>
<circle cx="784.5" cy="5.5" r="5.5" transform="rotate(180 784.5 5.5)" fill="#EDEDED"/>
<circle cx="765.5" cy="5.5" r="5.5" transform="rotate(180 765.5 5.5)" fill="#EDEDED"/>
<circle cx="746.5" cy="5.5" r="5.5" transform="rotate(180 746.5 5.5)" fill="#EDEDED"/>
<circle cx="727.5" cy="5.5" r="5.5" transform="rotate(180 727.5 5.5)" fill="#EDEDED"/>
<circle cx="708.5" cy="5.5" r="5.5" transform="rotate(180 708.5 5.5)" fill="#EDEDED"/>
<circle cx="689.5" cy="5.5" r="5.5" transform="rotate(180 689.5 5.5)" fill="#EDEDED"/>
<circle cx="670.5" cy="5.5" r="5.5" transform="rotate(180 670.5 5.5)" fill="#EDEDED"/>
<circle cx="651.5" cy="5.5" r="5.5" transform="rotate(180 651.5 5.5)" fill="#EDEDED"/>
<circle cx="632.5" cy="5.5" r="5.5" transform="rotate(180 632.5 5.5)" fill="#EDEDED"/>
<circle cx="613.5" cy="5.5" r="5.5" transform="rotate(180 613.5 5.5)" fill="#EDEDED"/>
<circle cx="594.5" cy="5.5" r="5.5" transform="rotate(180 594.5 5.5)" fill="#EDEDED"/>
<circle cx="575.5" cy="5.5" r="5.5" transform="rotate(180 575.5 5.5)" fill="#EDEDED"/>
<circle cx="556.5" cy="5.5" r="5.5" transform="rotate(180 556.5 5.5)" fill="#EDEDED"/>
<circle cx="537.5" cy="5.5" r="5.5" transform="rotate(180 537.5 5.5)" fill="#EDEDED"/>
<circle cx="518.5" cy="5.5" r="5.5" transform="rotate(180 518.5 5.5)" fill="#EDEDED"/>
<circle cx="499.5" cy="5.5" r="5.5" transform="rotate(180 499.5 5.5)" fill="#EDEDED"/>
<circle cx="480.5" cy="5.5" r="5.5" transform="rotate(180 480.5 5.5)" fill="#EDEDED"/>
<circle cx="461.5" cy="5.5" r="5.5" transform="rotate(180 461.5 5.5)" fill="#EDEDED"/>
<circle cx="442.5" cy="5.5" r="5.5" transform="rotate(180 442.5 5.5)" fill="#EDEDED"/>
<circle cx="423.5" cy="5.5" r="5.5" transform="rotate(180 423.5 5.5)" fill="#EDEDED"/>
<circle cx="404.5" cy="5.5" r="5.5" transform="rotate(180 404.5 5.5)" fill="#EDEDED"/>
<circle cx="385.5" cy="5.5" r="5.5" transform="rotate(180 385.5 5.5)" fill="#EDEDED"/>
<circle cx="366.5" cy="5.5" r="5.5" transform="rotate(180 366.5 5.5)" fill="#EDEDED"/>
<circle cx="347.5" cy="5.5" r="5.5" transform="rotate(180 347.5 5.5)" fill="#EDEDED"/>
<circle cx="328.5" cy="5.5" r="5.5" transform="rotate(180 328.5 5.5)" fill="#EDEDED"/>
<circle cx="309.5" cy="5.5" r="5.5" transform="rotate(180 309.5 5.5)" fill="#EDEDED"/>
<circle cx="290.5" cy="5.5" r="5.5" transform="rotate(180 290.5 5.5)" fill="#EDEDED"/>
<circle cx="271.5" cy="5.5" r="5.5" transform="rotate(180 271.5 5.5)" fill="#EDEDED"/>
<circle cx="252.5" cy="5.5" r="5.5" transform="rotate(180 252.5 5.5)" fill="#EDEDED"/>
<circle cx="233.5" cy="5.5" r="5.5" transform="rotate(180 233.5 5.5)" fill="#EDEDED"/>
<circle cx="214.5" cy="5.5" r="5.5" transform="rotate(180 214.5 5.5)" fill="#EDEDED"/>
<circle cx="195.5" cy="5.5" r="5.5" transform="rotate(180 195.5 5.5)" fill="#EDEDED"/>
<circle cx="176.5" cy="5.5" r="5.5" transform="rotate(180 176.5 5.5)" fill="#EDEDED"/>
<circle cx="157.5" cy="5.5" r="5.5" transform="rotate(180 157.5 5.5)" fill="#EDEDED"/>
<circle cx="138.5" cy="5.5" r="5.5" transform="rotate(180 138.5 5.5)" fill="#EDEDED"/>
<circle cx="119.5" cy="5.5" r="5.5" transform="rotate(180 119.5 5.5)" fill="#EDEDED"/>
<circle cx="100.5" cy="5.5" r="5.5" transform="rotate(180 100.5 5.5)" fill="#EDEDED"/>
<circle cx="81.5" cy="5.5" r="5.5" transform="rotate(180 81.5 5.5)" fill="#EDEDED"/>
<circle cx="62.5" cy="5.5" r="5.5" transform="rotate(180 62.5 5.5)" fill="#EDEDED"/>
<circle cx="43.5" cy="5.5" r="5.5" transform="rotate(180 43.5 5.5)" fill="#EDEDED"/>
<circle cx="24.5" cy="5.5" r="5.5" transform="rotate(180 24.5 5.5)" fill="#EDEDED"/>
<circle cx="5.5" cy="5.5" r="5.5" transform="rotate(180 5.5 5.5)" fill="#EDEDED"/>
</g>
</svg>
